<svg width="156" height="42" viewBox="0 0 156 42" fill="none" xmlns="http://www.w3.org/2000/svg" role="img" aria-labelledby="title">
  <title id="title">Settle</title>
  <defs>
    <linearGradient id="settle-mark" x1="6" y1="31" x2="38" y2="8" gradientUnits="userSpaceOnUse">
      <stop stop-color="#8AA7FF"/>
      <stop offset="0.58" stop-color="#EEF3FF"/>
      <stop offset="1" stop-color="#FFCB96"/>
    </linearGradient>
    <filter id="soft-glow" x="-8" y="-8" width="58" height="58" color-interpolation-filters="sRGB">
      <feDropShadow dx="-3" dy="2" stdDeviation="3" flood-color="#8AA7FF" flood-opacity="0.34"/>
      <feDropShadow dx="3" dy="2" stdDeviation="3" flood-color="#FFCB96" flood-opacity="0.3"/>
    </filter>
  </defs>
  <g filter="url(#soft-glow)">
    <path
      d="M7.5 18.4C7.5 15.8 8.9 13.4 11.1 12.1L22.1 5.5C24.5 4.1 27.5 4.1 29.9 5.5L40.9 12.1C43.1 13.4 44.5 15.8 44.5 18.4V31.2C44.5 34.1 42.1 36.5 39.2 36.5H31.3V25.8C31.3 23.1 29.1 20.9 26.4 20.9H25.6C22.9 20.9 20.7 23.1 20.7 25.8V36.5H12.8C9.9 36.5 7.5 34.1 7.5 31.2V18.4Z"
      stroke="url(#settle-mark)"
      stroke-width="3"
      stroke-linejoin="round"
    />
    <circle cx="35.4" cy="17.4" r="3.8" stroke="#FFCB96" stroke-width="2"/>
  </g>
  <path
    d="M61.4 31.2C58.4 31.2 55.7 30.3 53.5 28.6L55.5 24.4C57.5 25.8 59.6 26.5 61.7 26.5C63.9 26.5 65.1 25.8 65.1 24.5C65.1 23.8 64.8 23.3 64.1 22.9C63.5 22.5 62.3 22.1 60.7 21.7C58.3 21.1 56.6 20.2 55.5 19.2C54.4 18.1 53.8 16.7 53.8 15C53.8 12.8 54.6 11.1 56.3 9.8C58 8.5 60.2 7.8 62.9 7.8C65.5 7.8 67.9 8.5 70.1 9.9L68.2 14.1C66.4 13 64.6 12.5 62.8 12.5C60.8 12.5 59.8 13.2 59.8 14.5C59.8 15.1 60.1 15.6 60.7 16C61.3 16.3 62.4 16.7 64 17.1C66.5 17.8 68.3 18.7 69.4 19.8C70.5 20.9 71.1 22.3 71.1 24.1C71.1 26.3 70.2 28.1 68.5 29.4C66.8 30.6 64.4 31.2 61.4 31.2Z"
    fill="#12234A"
  />
  <path
    d="M82.6 31.2C79.6 31.2 77.2 30.4 75.5 28.7C73.8 27 72.9 24.7 72.9 21.8C72.9 19 73.7 16.7 75.3 15C76.9 13.3 79.1 12.4 81.8 12.4C84.4 12.4 86.4 13.2 87.9 14.8C89.4 16.4 90.1 18.6 90.1 21.4V22.9H78.5C78.8 25.5 80.3 26.8 83 26.8C84.8 26.8 86.5 26.3 88 25.3L89.5 29.1C87.6 30.5 85.3 31.2 82.6 31.2ZM81.9 16.4C80 16.4 78.9 17.5 78.6 19.8H84.9C84.8 17.5 83.8 16.4 81.9 16.4Z"
    fill="#12234A"
  />
  <path d="M100.5 30.8C96.6 30.8 94.6 28.8 94.6 24.8V17.1H91.6V12.8H94.6V8.3H100.1V12.8H104.7V17.1H100.1V24C100.1 25.5 100.8 26.3 102.3 26.3C103 26.3 103.7 26.2 104.4 25.9L105.1 30.1C103.7 30.6 102.2 30.8 100.5 30.8Z" fill="#12234A"/>
  <path d="M114.7 30.8C110.8 30.8 108.8 28.8 108.8 24.8V17.1H105.8V12.8H108.8V8.3H114.3V12.8H118.9V17.1H114.3V24C114.3 25.5 115 26.3 116.5 26.3C117.2 26.3 117.9 26.2 118.6 25.9L119.3 30.1C117.9 30.6 116.4 30.8 114.7 30.8Z" fill="#12234A"/>
  <path d="M122.4 31V7H128V31H122.4Z" fill="#12234A"/>
  <path
    d="M140.5 31.2C137.5 31.2 135.1 30.4 133.4 28.7C131.7 27 130.8 24.7 130.8 21.8C130.8 19 131.6 16.7 133.2 15C134.8 13.3 137 12.4 139.7 12.4C142.3 12.4 144.3 13.2 145.8 14.8C147.3 16.4 148 18.6 148 21.4V22.9H136.4C136.7 25.5 138.2 26.8 140.9 26.8C142.7 26.8 144.4 26.3 145.9 25.3L147.4 29.1C145.5 30.5 143.2 31.2 140.5 31.2ZM139.8 16.4C137.9 16.4 136.8 17.5 136.5 19.8H142.8C142.7 17.5 141.7 16.4 139.8 16.4Z"
    fill="#12234A"
  />
</svg>
